<svg width="985" height="344" viewBox="0 0 985 344" fill="none" xmlns="http://www.w3.org/2000/svg">
<g clip-path="url(#clip0_436_25)">
<path d="M0 49.86V150.69C0 152.66 0.46 154.62 1.39 156.47L57.32 263.43C59.52 267.59 63.69 270.14 68.32 270.14H108.39C115.22 270.14 120.9 264.59 120.9 257.65V156.7C120.9 154.73 120.44 152.77 119.51 150.92L63.92 43.96C61.72 39.8 57.55 37.25 52.8 37.25H12.39C5.56 37.37 0 42.92 0 49.85V49.86Z" fill="#2B150C"/>
<path d="M121.01 50.2V152.53C121.01 153.57 121.13 154.61 121.36 155.65L148.23 261.11C149.62 266.66 154.6 270.48 160.27 270.48H167.8C174.63 270.48 180.31 264.93 180.31 257.99V155.66C180.31 154.62 180.19 153.58 179.96 152.54L153.09 47.08C151.7 41.53 146.72 37.71 141.05 37.71H133.52C126.57 37.71 121.01 43.26 121.01 50.2Z" fill="#2B150C"/>
<path d="M201.73 37.71H198.83C192.23 37.71 186.79 42.91 186.44 49.5L180.65 153.22V154.95L189.45 259.02C190.03 265.5 195.36 270.47 201.84 270.47C208.67 270.47 214.35 264.92 214.35 257.98V50.2C214.12 43.26 208.56 37.71 201.73 37.71Z" fill="#2B150C"/>
<path d="M332.35 254.44C326.62 249.22 323.76 242.81 323.76 235.57V111.72H281.47V92.68H323.76V41.96H342.8V92.68H429.58V111.72H342.8V233.72C342.8 236.42 343.81 238.78 346 240.46C348.02 242.31 350.55 243.16 353.58 243.16H429.74V262.2H353.41C345.15 262.37 338.08 259.67 332.35 254.45V254.44Z" fill="#2B150C"/>
<path d="M456.03 68.4098C453.33 65.7098 451.99 62.6798 451.99 59.1398C451.99 55.5998 453.34 52.3998 456.03 49.6998C458.73 47.1698 461.76 45.8198 465.3 45.8198C468.84 45.8198 471.87 47.1698 474.57 49.6998C477.27 52.2298 478.61 55.4298 478.61 59.1398C478.61 62.8498 477.26 65.7098 474.57 68.4098C471.87 71.1098 468.84 72.4498 465.3 72.4498C461.76 72.4498 458.73 71.0998 456.03 68.4098ZM455.69 92.6698H474.73V262.35H455.69V92.6798V92.6698Z" fill="#2B150C"/>
<path d="M696.49 262.19L670.37 203.38V0H651.83L652 132.61C646.1 119.63 636.83 109.02 623.86 101.1C611.05 93.01 597.24 88.97 582.58 88.97C567.08 88.97 552.92 93.01 539.78 100.93C526.64 108.85 516.19 119.63 508.44 133.11C500.69 146.76 496.81 161.42 496.81 177.43C496.81 193.44 500.68 208.43 508.44 221.92C516.19 235.4 526.64 246.02 539.61 254.1C552.75 262.02 566.91 266.06 582.41 266.06C597.91 266.06 613.08 261.51 626.73 252.24C640.38 242.97 649.65 231.18 654.87 216.85L655.54 215L676.6 262.35H696.48V262.18L696.49 262.19ZM642.23 212.31C635.66 223.09 627.23 231.69 616.45 238.09C605.83 244.49 594.54 247.69 582.41 247.69C570.28 247.69 559.32 244.49 549.21 238.09C539.1 231.69 531.01 223.26 524.95 212.65C518.88 202.03 516.02 190.24 516.02 177.6C516.02 164.96 519.05 153.5 524.95 142.72C531.02 131.94 539.1 123.34 549.21 116.94C559.32 110.54 570.44 107.34 582.41 107.34C594.38 107.34 605.83 110.54 616.45 116.94C627.07 123.34 635.66 131.94 642.23 142.72C648.63 153.5 652 165.13 652 177.6C652 190.07 648.63 201.53 642.23 212.31Z" fill="#2B150C"/>
<path d="M825.06 92.6802H844.94L742.83 343.25H722.95L758.17 256.98L685.21 92.6902H705.09L767.94 233.73L825.06 92.6902V92.6802Z" fill="#2B150C"/>
<path d="M876.11 256.46C863.3 250.06 852.18 241.46 842.75 230.34L856.74 216.69C865.33 226.46 874.26 234.05 883.7 239.27C893.14 244.49 904.09 247.19 916.56 247.19C930.21 247.19 941.67 244.33 950.93 238.6C960.2 232.87 964.75 225.79 964.75 217.54C964.75 210.97 961.72 204.57 955.82 198.16C949.75 191.93 936.1 186.87 914.54 182.83C891.79 178.62 875.45 173.06 865.84 165.81C856.24 158.56 851.35 148.12 851.35 134.47C851.35 125.71 854.21 117.79 859.78 110.71C865.34 103.8 872.75 98.4098 881.85 94.5298C890.95 90.6498 900.39 88.7998 910.5 88.7998C923.47 88.7998 935.94 91.9998 947.74 98.5698C959.54 105.14 969.65 113.74 977.73 124.52L963.74 136.99C956.83 127.72 948.91 120.31 939.98 114.75C931.05 109.19 921.44 106.49 911.17 106.49C899.21 106.49 889.26 109.02 881.68 114.07C873.93 119.13 870.05 125.7 870.05 134.12C870.05 139.01 871.23 143.22 873.42 146.59C875.61 149.96 880.16 153.16 887.07 156.19C893.98 159.22 904.09 161.75 917.57 164.28C940.15 168.49 956.83 174.73 967.95 183.32C978.9 191.91 984.46 203.2 984.46 217.19C984.46 226.46 981.6 234.88 975.7 242.3C969.8 249.71 961.88 255.61 951.77 259.66C941.66 263.87 930.54 265.89 918.41 265.89C902.91 266.06 888.92 262.86 876.12 256.45L876.11 256.46Z" fill="#2B150C"/>
</g>
<defs>
<clipPath id="clip0_436_25">
<rect width="984.46" height="343.24" fill="white"/>
</clipPath>
</defs>
</svg>
